<svg width="36" height="36" viewBox="0 0 36 36" fill="none" xmlns="http://www.w3.org/2000/svg">
<path d="M28.5 13.95V7.5C28.5 6.675 27.825 6 27 6H25.5C24.675 6 24 6.675 24 7.5V9.9L19.005 5.4C18.435 4.89 17.565 4.89 16.995 5.4L4.45503 16.695C3.94503 17.145 4.26002 18 4.95002 18H7.50002V28.5C7.50002 29.325 8.17502 30 9.00002 30H13.5C14.325 30 15 29.325 15 28.5V21H21V28.5C21 29.325 21.675 30 22.5 30H27C27.825 30 28.5 29.325 28.5 28.5V18H31.05C31.74 18 32.07 17.145 31.545 16.695L28.5 13.95ZM15 15C15 13.35 16.35 12 18 12C19.65 12 21 13.35 21 15H15Z" fill="#F2F2F2"/>
</svg>
